<?xml version="1.0" encoding="UTF-8" standalone="no"?>
<svg
   xmlns:dc="http://purl.org/dc/elements/1.1/"
   xmlns:cc="http://creativecommons.org/ns#"
   xmlns:rdf="http://www.w3.org/1999/02/22-rdf-syntax-ns#"
   xmlns:svg="http://www.w3.org/2000/svg"
   xmlns="http://www.w3.org/2000/svg"
   xmlns:sodipodi="http://sodipodi.sourceforge.net/DTD/sodipodi-0.dtd"
   xmlns:inkscape="http://www.inkscape.org/namespaces/inkscape"
   version="1.1"
   width="20"
   height="20"
   x="0"
   y="0"
   viewBox="0 0 20 20"
   xml:space="preserve"
   class=""
   id="svg6"
   sodipodi:docname="linkedin.svg"
   inkscape:version="1.0.2 (e86c870879, 2021-01-15, custom)"><metadata
     id="metadata12"><rdf:RDF><cc:Work
         rdf:about=""><dc:format>image/svg+xml</dc:format><dc:type
           rdf:resource="http://purl.org/dc/dcmitype/StillImage" /><dc:title></dc:title></cc:Work></rdf:RDF></metadata><defs
     id="defs10" /><sodipodi:namedview
     pagecolor="#ffffff"
     bordercolor="#666666"
     borderopacity="1"
     objecttolerance="10"
     gridtolerance="10"
     guidetolerance="10"
     inkscape:pageopacity="0"
     inkscape:pageshadow="2"
     inkscape:window-width="1366"
     inkscape:window-height="706"
     id="namedview8"
     showgrid="false"
     inkscape:zoom="1.9827809"
     inkscape:cx="256"
     inkscape:cy="49.975945"
     inkscape:window-x="-8"
     inkscape:window-y="-8"
     inkscape:window-maximized="1"
     inkscape:current-layer="svg6" /><g
     id="g4"
     transform="matrix(0.03252877,0,0,0.03363857,2.6269253,1.329638)"><path
       d="M 160.00781,423 H 90.007812 V 197 h 69.999998 z m 6.98438,-298.00391 C 166.99219,102.36719 148.63281,84 126.01563,84 103.3125,84 85,102.36719 85,124.99609 85,147.63281 103.3125,166 126.01563,166 c 22.61718,0 40.97656,-18.36719 40.97656,-41.00391 z M 422,298.66406 C 422,237.99609 409.18359,193 338.3125,193 c -34.05469,0 -56.91406,17.03125 -66.24609,34.74219 H 272 V 197 h -68 v 226 h 68 V 310.78906 c 0,-29.38672 7.48047,-57.85547 43.90625,-57.85547 35.92969,0 37.09375,33.60547 37.09375,59.72266 V 423 h 69 z M 512,452 V 60 C 512,26.914062 485.08594,0 452,0 H 60 C 26.914062,0 0,26.914062 0,60 v 392 c 0,33.08594 26.914062,60 60,60 h 392 c 33.08594,0 60,-26.91406 60,-60 z M 452,40 c 11.02734,0 20,8.972656 20,20 v 392 c 0,11.02734 -8.97266,20 -20,20 H 60 C 48.972656,472 40,463.02734 40,452 V 60 C 40,48.972656 48.972656,40 60,40 Z m 0,0"
       fill="#ffffff"
       data-original="#000000"
       class=""
       id="path2" /></g></svg>
