<?xml version="1.0" encoding="UTF-8" standalone="no"?>
<svg
   xmlns:dc="http://purl.org/dc/elements/1.1/"
   xmlns:cc="http://creativecommons.org/ns#"
   xmlns:rdf="http://www.w3.org/1999/02/22-rdf-syntax-ns#"
   xmlns:svg="http://www.w3.org/2000/svg"
   xmlns="http://www.w3.org/2000/svg"
   xmlns:sodipodi="http://sodipodi.sourceforge.net/DTD/sodipodi-0.dtd"
   xmlns:inkscape="http://www.inkscape.org/namespaces/inkscape"
   version="1.1"
   width="35"
   height="35"
   x="0"
   y="0"
   viewBox="0 0 34.60085 34.60085"
   xml:space="preserve"
   class=""
   id="svg38"
   sodipodi:docname="svg1.svg"
   inkscape:version="1.0.2 (e86c870879, 2021-01-15, custom)"><metadata
     id="metadata44"><rdf:RDF><cc:Work
         rdf:about=""><dc:format>image/svg+xml</dc:format><dc:type
           rdf:resource="http://purl.org/dc/dcmitype/StillImage" /><dc:title></dc:title></cc:Work></rdf:RDF></metadata><defs
     id="defs42" /><sodipodi:namedview
     pagecolor="#ffffff"
     bordercolor="#666666"
     borderopacity="1"
     objecttolerance="10"
     gridtolerance="10"
     guidetolerance="10"
     inkscape:pageopacity="0"
     inkscape:pageshadow="2"
     inkscape:window-width="1366"
     inkscape:window-height="706"
     id="namedview40"
     showgrid="false"
     inkscape:zoom="11.888233"
     inkscape:cx="38.103735"
     inkscape:cy="16.429017"
     inkscape:window-x="-8"
     inkscape:window-y="-8"
     inkscape:window-maximized="1"
     inkscape:current-layer="svg38" /><g
     id="g36"
     transform="matrix(0.06817843,0,0,0.06817843,0.0245678,0.3257503)"><g
       id="g34"><path
         d="m 165.858,329.247 c 6.161,-5.421 6.766,-14.807 1.352,-20.974 l -0.818,-0.939 c -2.599,-2.953 -6.269,-4.745 -10.195,-4.98 -0.327,0 -0.655,0 -0.989,0 -3.605,-0.006 -7.087,1.308 -9.79,3.693 l -19.921,17.488 -18.142,15.923 c -6.143,5.428 -6.744,14.799 -1.345,20.967 l 0.832,0.953 c 5.425,6.158 14.811,6.763 20.981,1.352 l 13.945,-12.237 z"
         fill="#dc3545"
         data-original="#000000"
         class=""
         id="path2" /><path
         d="m 118.026,369.9 c -0.413,0 -0.818,0 -1.231,-0.036 -4.876,-0.301 -9.428,-2.541 -12.643,-6.218 l -0.84,-0.96 c -6.678,-7.643 -5.931,-19.245 1.672,-25.969 l 38.078,-33.439 c 3.675,-3.216 8.473,-4.847 13.347,-4.539 4.876,0.301 9.428,2.54 12.643,6.218 l 1.167,1.359 c 6.366,7.663 5.477,19.001 -2.006,25.577 l -38.064,33.439 c -3.346,2.955 -7.659,4.58 -12.123,4.568 z m 37.167,-64.032 c -2.744,0.014 -5.389,1.026 -7.442,2.846 l -38.064,33.439 c -4.669,4.132 -5.123,11.259 -1.017,15.951 l 0.84,0.96 c 4.128,4.676 11.262,5.131 15.951,1.017 l 38.057,-33.439 c 4.682,-4.122 5.14,-11.257 1.025,-15.944 l -0.832,-0.96 c -1.97,-2.253 -4.76,-3.624 -7.748,-3.806 z"
         fill="#dc3545"
         data-original="#000000"
         class=""
         id="path4" /><path
         d="m 219.282,366.414 c -3.605,-0.005 -7.089,1.305 -9.797,3.685 l -19.644,17.246 c -6.173,5.417 -6.786,14.812 -1.37,20.985 5.417,6.173 14.812,6.786 20.985,1.37 L 229.1,392.454 c 6.173,-5.41 6.791,-14.8 1.381,-20.973 -2.827,-3.226 -6.91,-5.073 -11.199,-5.067 z"
         fill="#dc3545"
         data-original="#000000"
         class=""
         id="path6" /><path
         d="m 199.667,416.942 c -10.173,0.018 -18.434,-8.215 -18.452,-18.388 -0.009,-5.317 2.28,-10.38 6.279,-13.884 l 19.651,-17.246 c 7.748,-6.414 19.154,-5.672 26.004,1.693 6.714,7.651 5.956,19.295 -1.693,26.011 l -19.644,17.246 c -3.357,2.953 -7.676,4.577 -12.145,4.568 z m 19.622,-46.956 c -2.746,-0.021 -5.405,0.96 -7.478,2.76 l -19.651,17.246 c -4.698,4.126 -5.161,11.279 -1.035,15.976 4.126,4.698 11.279,5.161 15.976,1.035 l 19.651,-17.225 c 4.696,-4.115 5.166,-11.258 1.051,-15.953 -2.151,-2.454 -5.258,-3.859 -8.521,-3.854 z"
         fill="#dc3545"
         data-original="#000000"
         class=""
         id="path8" /><path
         d="m 44.004,93.793 -39.942,174.253 31.931,17.943 82.63,-134.41 z"
         fill="#dc3545"
         data-original="#000000"
         class=""
         id="path10" /><path
         d="M 37.231,290.763 0,269.846 41.77,87.568 123.319,150.711 Z M 8.125,266.246 34.755,281.187 113.927,152.411 46.224,100.018 Z"
         fill="#dc3545"
         data-original="#000000"
         class=""
         id="path12" /><path
         d="m 119.648,309.013 c 6.171,-5.42 6.782,-14.815 1.366,-20.988 l -0.256,-0.292 c -2.593,-2.97 -6.267,-4.779 -10.202,-5.023 -0.327,0 -0.655,0 -0.989,0 -3.605,-0.006 -7.087,1.308 -9.79,3.693 l -23.856,20.889 c -6.171,5.42 -6.782,14.815 -1.366,20.988 5.309,6.317 14.734,7.133 21.051,1.823 0.065,-0.055 0.13,-0.11 0.194,-0.166 l 1.807,-1.587 18.157,-15.937 z"
         fill="#dc3545"
         data-original="#000000"
         class=""
         id="path14" /><path
         d="m 86.152,337.172 c -0.455,0 -0.918,0 -1.387,-0.05 -4.97,-0.383 -9.588,-2.712 -12.849,-6.481 -6.715,-7.647 -5.96,-19.289 1.686,-26.004 l 23.827,-20.91 c 7.647,-6.706 19.28,-5.951 25.997,1.686 3.382,3.714 5.112,8.64 4.795,13.653 -0.301,4.879 -2.543,9.435 -6.225,12.65 l -23.82,20.91 c -3.317,2.935 -7.595,4.553 -12.024,4.546 z m 23.414,-50.912 c -2.744,0.011 -5.391,1.023 -7.442,2.846 l -23.827,20.91 c -4.696,4.121 -5.161,11.269 -1.04,15.964 0,0 10e-4,10e-4 10e-4,10e-4 2.032,2.366 4.916,3.834 8.025,4.084 2.989,0.234 5.945,-0.758 8.189,-2.746 l 23.82,-20.91 c 4.692,-4.124 5.157,-11.269 1.039,-15.965 -1.998,-2.411 -4.895,-3.899 -8.018,-4.119 z"
         fill="#dc3545"
         data-original="#000000"
         class=""
         id="path16" /><path
         d="m 202.755,350.641 c 0.269,-3.938 -1.051,-7.82 -3.664,-10.779 l -0.213,-0.242 c -2.595,-2.95 -6.26,-4.742 -10.181,-4.98 -0.327,0 -0.662,0 -0.989,0 -3.605,-0.006 -7.087,1.307 -9.79,3.693 l -2.334,2.049 -24.105,21.159 -6.403,5.592 c -6.183,5.595 -6.659,15.142 -1.065,21.324 2.61,2.885 6.234,4.651 10.115,4.929 3.939,0.274 7.823,-1.046 10.779,-3.664 l 32.82,-28.807 c 2.988,-2.611 4.801,-6.313 5.03,-10.274 z"
         fill="#dc3545"
         data-original="#000000"
         class=""
         id="path18" /><path
         d="m 155.115,396.936 c -0.406,0 -0.804,0 -1.209,-0.036 -10.248,-0.634 -18.041,-9.456 -17.406,-19.704 0.304,-4.916 2.547,-9.511 6.236,-12.775 l 32.792,-28.843 c 3.681,-3.207 8.475,-4.837 13.347,-4.539 4.869,0.298 9.417,2.532 12.629,6.204 3.375,3.708 5.101,8.628 4.781,13.632 -0.308,4.866 -2.544,9.408 -6.211,12.621 l -32.82,28.807 c -3.345,2.978 -7.663,4.626 -12.139,4.633 z m 22.767,-53.937 -30.458,26.737 c -4.698,4.12 -5.175,11.264 -1.067,15.972 1.999,2.378 4.877,3.844 7.976,4.063 3.006,0.213 5.971,-0.795 8.225,-2.796 l 32.82,-28.807 c 4.695,-4.116 5.165,-11.258 1.049,-15.954 -0.003,-0.004 -0.007,-0.008 -0.01,-0.012 -1.993,-2.391 -4.877,-3.861 -7.983,-4.07 h -0.754 c -2.747,0 -5.397,1.013 -7.442,2.846 z"
         fill="#dc3545"
         data-original="#000000"
         class=""
         id="path20" /><path
         d="M 399.398,303.122 283.613,208.774 c -44.339,23.543 -75.736,11.426 -90.748,1.843 -7.825,-5.106 -10.029,-15.59 -4.923,-23.415 1.586,-2.431 3.772,-4.413 6.346,-5.755 l 38.59,-20.497 c -0.996,-0.149 -1.971,-0.277 -2.846,-0.363 -34.825,5.502 -69.995,8.531 -105.248,9.064 l -67.461,109.722 15.04,11.462 17.68,-15.524 c 12.275,-10.776 30.962,-9.561 41.738,2.714 0.001,0.001 0.002,0.003 0.004,0.004 l 0.256,0.292 c 3.538,4.057 5.891,9.009 6.802,14.315 5.361,-3.658 11.795,-5.411 18.271,-4.98 7.833,0.488 15.145,4.09 20.305,10.003 l 0.832,0.953 c 5.187,5.881 7.808,13.591 7.278,21.415 v 0.043 c 1.354,-0.138 2.716,-0.183 4.077,-0.135 7.833,0.489 15.144,4.091 20.305,10.003 l -5.315,5.094 5.528,-4.852 c 5.195,5.883 7.821,13.599 7.293,21.429 0,0.1 -0.043,0.192 -0.05,0.292 16.199,-1.153 30.265,11.045 31.418,27.244 0.096,1.352 0.099,2.709 0.008,4.061 -0.365,5.088 -2.052,9.993 -4.895,14.229 l 31.724,18.306 c 6.955,3.944 15.787,1.604 19.878,-5.265 3.88,-6.556 1.988,-15 -4.319,-19.274 l -50.514,-35.004 c -0.043,0 -0.064,-0.078 -0.1,-0.107 l -3.401,-2.355 c -3.3,-2.371 -4.053,-6.967 -1.682,-10.267 2.312,-3.219 6.759,-4.027 10.056,-1.828 l 71.247,49.355 c 6.572,4.555 15.592,2.92 20.147,-3.652 0.003,-0.004 0.006,-0.008 0.009,-0.012 4.471,-6.535 2.889,-15.445 -3.557,-20.042 l -70.898,-50.287 c -0.043,0 -0.057,-0.078 -0.1,-0.107 -3.312,-2.358 -4.086,-6.954 -1.729,-10.267 2.357,-3.313 6.954,-4.086 10.267,-1.729 l 79.485,56.391 c 6.952,4.909 16.568,3.253 21.477,-3.7 4.752,-6.729 3.37,-16.006 -3.136,-21.059 l -85.526,-61.627 c -3.38,-2.255 -4.292,-6.822 -2.037,-10.202 2.255,-3.38 6.822,-4.292 10.202,-2.037 0.127,0.085 0.251,0.173 0.373,0.266 l 5.848,4.169 h 0.078 l 79.265,57.11 c 0.149,0.107 0.256,0.242 0.398,0.349 l 1.309,0.939 c 0.249,0.172 0.487,0.359 0.711,0.562 l 1.423,0.975 c 6.625,4.747 15.807,3.478 20.896,-2.889 3.043,-3.845 4.028,-8.929 2.64,-13.632 -0.844,-2.914 -2.568,-5.495 -4.934,-7.393 z"
         fill="#dc3545"
         data-original="#000000"
         class=""
         id="path22" /><path
         d="m 282.83,421.24 c -3.145,10e-4 -6.234,-0.826 -8.957,-2.398 l -35.026,-20.199 2.134,-3.13 c 7.907,-11.928 4.646,-28.007 -7.282,-35.914 -3.783,-2.508 -8.159,-3.978 -12.689,-4.263 -0.883,-0.043 -1.768,-0.019 -2.647,0.071 l -4.774,0.299 0.277,-4.048 c 0.448,-5.749 -1.029,-11.483 -4.198,-16.3 l -2.668,2.348 -4.81,-5.236 2.704,-2.59 c -4.302,-3.792 -9.744,-6.045 -15.467,-6.403 -1.037,-0.034 -2.076,-10e-4 -3.109,0.1 l -3.821,0.285 -0.477,-4.212 v -0.15 c 0.373,-6.782 -1.926,-13.44 -6.403,-18.548 l -0.84,-0.96 c -8.565,-9.832 -23.125,-11.713 -33.909,-4.383 l -4.532,3.045 -0.953,-5.379 c -2.417,-14.221 -15.905,-23.789 -30.126,-21.371 -4.756,0.809 -9.196,2.919 -12.826,6.096 l -19.871,17.445 -19.957,-15.19 70.158,-114.12 1.914,-0.057 c 35.061,-0.535 70.041,-3.543 104.679,-9 l 0.498,-0.1 0.505,0.043 c 0.939,0.085 1.978,0.228 3.052,0.384 l 10.672,1.601 -48.124,25.556 c -6.556,3.387 -9.124,11.448 -5.737,18.004 1.062,2.055 2.639,3.799 4.577,5.062 14.123,9.014 44.261,20.761 87.148,-1.999 l 2.085,-1.11 117.606,95.828 c 2.92,2.371 5.038,5.582 6.069,9.199 1.718,5.8 0.508,12.074 -3.244,16.819 -6.284,7.853 -17.615,9.416 -25.791,3.557 l -3.991,-2.981 -84.978,-61.186 c -1.698,-1.219 -4.063,-0.831 -5.282,0.867 -0.004,0.005 -0.007,0.01 -0.011,0.016 -1.221,1.702 -0.831,4.071 0.87,5.292 0.004,0.003 0.008,0.006 0.012,0.009 l 85.54,61.677 c 8.293,6.401 9.827,18.312 3.426,26.605 -6.195,8.027 -17.608,9.761 -25.908,3.939 l -79.507,-56.363 c -0.825,-0.585 -1.849,-0.818 -2.846,-0.647 -2.069,0.35 -3.462,2.311 -3.112,4.38 0.168,0.994 0.725,1.881 1.547,2.465 l 71.019,50.408 c 8.024,5.733 9.982,16.833 4.404,24.965 -5.664,8.194 -16.898,10.245 -25.092,4.581 -0.003,-0.002 -0.006,-0.004 -0.009,-0.006 L 243.52,344.581 c -1.685,-1.251 -4.064,-0.899 -5.315,0.786 -1.251,1.685 -0.899,4.064 0.786,5.315 0.069,0.051 0.139,0.099 0.211,0.146 l 54.029,37.466 c 8.216,5.625 10.316,16.845 4.691,25.061 -2.423,3.539 -6.029,6.098 -10.169,7.218 -1.603,0.441 -3.259,0.666 -4.923,0.667 z m -34.022,-25.08 28.622,16.52 c 5.336,2.887 12.002,0.903 14.889,-4.433 2.606,-4.815 1.268,-10.813 -3.136,-14.065 l -40.376,-28.018 c 2.734,5.325 3.964,11.295 3.557,17.267 -0.288,4.445 -1.5,8.78 -3.556,12.729 z m -7.413,-59.357 c 2.212,-0.004 4.372,0.669 6.19,1.928 l 71.232,49.355 c 4.961,3.429 11.763,2.19 15.197,-2.768 3.375,-4.927 2.185,-11.649 -2.675,-15.119 L 259.935,319.5 c -4.725,-3.742 -5.522,-10.607 -1.78,-15.332 3.585,-4.526 10.074,-5.477 14.807,-2.17 l 79.507,56.391 c 5.368,3.747 12.757,2.432 16.504,-2.936 3.597,-5.154 2.546,-12.219 -2.395,-16.103 l -85.433,-61.563 c -4.902,-3.505 -6.034,-10.32 -2.529,-15.222 3.505,-4.902 10.32,-6.034 15.222,-2.529 l 5.934,4.205 80.965,58.405 c 0.364,0.262 0.711,0.547 1.039,0.854 l 1.003,0.655 c 5.068,3.672 12.125,2.734 16.058,-2.134 2.336,-2.943 3.095,-6.839 2.035,-10.444 -0.619,-2.234 -1.913,-4.222 -3.707,-5.692 L 283.18,213.01 c -44.958,22.98 -77.009,10.331 -92.228,0.605 -9.487,-6.155 -12.188,-18.835 -6.033,-28.322 1.927,-2.971 4.592,-5.391 7.734,-7.024 l 21.814,-11.583 c -22.184,3.01 -52.471,5.251 -87.639,6.403 L 62.083,278.455 72.264,286.203 87.767,272.6 c 13.747,-12.071 34.678,-10.712 46.749,3.035 0.003,0.003 0.006,0.007 0.009,0.01 2.974,3.364 5.244,7.29 6.674,11.547 5.037,-2.448 10.627,-3.535 16.214,-3.152 8.783,0.545 16.982,4.583 22.767,11.213 l 0.84,0.96 c 4.92,5.576 7.802,12.657 8.175,20.085 h 0.711 c 7.662,0.501 14.908,3.664 20.483,8.943 l 0.114,-0.1 1.928,2.206 0.206,0.228 2.241,2.554 -0.1,0.1 c 3.818,5.238 5.999,11.489 6.268,17.965 h 0.434 c 3.16,0.206 6.275,0.863 9.249,1.949 -1.368,-5.858 2.273,-11.716 8.131,-13.084 0.833,-0.194 1.686,-0.29 2.541,-0.285 z"
         fill="#dc3545"
         data-original="#000000"
         class=""
         id="path24" /><path
         d="m 462.149,91.146 -74.605,57.786 69.013,112.249 c 0.454,0.235 0.881,0.519 1.274,0.847 1.183,1.219 1.898,2.816 2.021,4.511 l 10.338,16.812 31.902,-17.95 z"
         fill="#dc3545"
         data-original="#000000"
         class=""
         id="path26" /><path
         d="m 468.922,288.124 -12.557,-20.433 -0.078,-0.825 c -0.046,-0.871 -0.399,-1.698 -0.996,-2.334 l -1.366,-0.811 -0.42,-0.711 -70.685,-114.939 81.563,-63.15 41.777,182.278 z m -5.691,-22.81 8.153,13.255 26.63,-14.941 -38.085,-166.263 -67.696,52.421 66.878,108.777 c 0.441,0.264 0.849,0.579 1.217,0.939 1.56,1.583 2.583,3.616 2.924,5.813 z"
         fill="#dc3545"
         data-original="#000000"
         class=""
         id="path28" /><path
         d="m 368.385,168.86 c -14.472,5.958 -30.597,6.544 -45.463,1.651 l -39.166,-12.714 c -5.413,-1.716 -11.287,-1.204 -16.321,1.423 l -13.276,7.051 c -0.142,0.071 -0.263,0.157 -0.413,0.221 l -52.606,27.947 c -0.749,0.359 -1.237,1.105 -1.266,1.935 -0.058,0.751 0.307,1.473 0.946,1.871 15.474,9.875 41.977,17.075 79.919,-4.696 2.644,-1.513 5.946,-1.245 8.31,0.676 l 119.584,97.471 c 1.665,1.369 3.169,2.923 4.482,4.632 l 29.569,-29.59 -63.015,-102.494 z"
         fill="#dc3545"
         data-original="#000000"
         class=""
         id="path30" /><path
         d="m 412.809,301.649 -2.476,-3.138 c -1.144,-1.498 -2.457,-2.859 -3.913,-4.055 L 286.808,197.013 c -1.219,-0.974 -2.908,-1.112 -4.269,-0.349 -39.494,22.682 -67.262,15.026 -83.605,4.61 -1.72,-1.084 -2.711,-3.022 -2.583,-5.051 0.086,-2.09 1.298,-3.969 3.166,-4.909 l 66.273,-35.196 c 5.882,-3.082 12.752,-3.686 19.082,-1.679 l 39.152,12.693 c 14.062,4.633 29.317,4.083 43.008,-1.551 l 14.108,-5.777 66.067,107.432 z M 284.381,189.037 c 2.514,-0.005 4.953,0.854 6.908,2.433 l 119.591,97.471 c 0.842,0.679 1.643,1.409 2.398,2.184 l 24.901,-24.901 -59.956,-97.55 -8.481,3.472 c -15.258,6.281 -32.259,6.896 -47.932,1.736 l -39.131,-12.707 c -4.506,-1.415 -9.39,-0.98 -13.575,1.21 l -64.267,34.151 c 14.891,8.651 39.387,13.923 74.156,-6.047 1.641,-0.944 3.498,-1.444 5.388,-1.452 z"
         fill="#dc3545"
         data-original="#000000"
         class=""
         id="path32" /></g></g></svg>
