<?xml version="1.0" encoding="UTF-8" standalone="no"?>
<svg
   xmlns:dc="http://purl.org/dc/elements/1.1/"
   xmlns:cc="http://creativecommons.org/ns#"
   xmlns:rdf="http://www.w3.org/1999/02/22-rdf-syntax-ns#"
   xmlns:svg="http://www.w3.org/2000/svg"
   xmlns="http://www.w3.org/2000/svg"
   xmlns:sodipodi="http://sodipodi.sourceforge.net/DTD/sodipodi-0.dtd"
   xmlns:inkscape="http://www.inkscape.org/namespaces/inkscape"
   version="1.1"
   width="35"
   height="35"
   x="0"
   y="0"
   viewBox="0 0 35.000479 35.000479"
   xml:space="preserve"
   class=""
   id="svg8"
   sodipodi:docname="svg2.svg"
   inkscape:version="1.0.2 (e86c870879, 2021-01-15, custom)"><metadata
     id="metadata14"><rdf:RDF><cc:Work
         rdf:about=""><dc:format>image/svg+xml</dc:format><dc:type
           rdf:resource="http://purl.org/dc/dcmitype/StillImage" /><dc:title></dc:title></cc:Work></rdf:RDF></metadata><defs
     id="defs12" /><sodipodi:namedview
     pagecolor="#ffffff"
     bordercolor="#666666"
     borderopacity="1"
     objecttolerance="10"
     gridtolerance="10"
     guidetolerance="10"
     inkscape:pageopacity="0"
     inkscape:pageshadow="2"
     inkscape:window-width="1366"
     inkscape:window-height="706"
     id="namedview10"
     showgrid="false"
     inkscape:zoom="5.9441164"
     inkscape:cx="60.845018"
     inkscape:cy="37.49532"
     inkscape:window-x="-8"
     inkscape:window-y="-8"
     inkscape:window-maximized="1"
     inkscape:current-layer="svg8" /><g
     id="g6"
     transform="matrix(0.06780784,0,0,0.06780784,0.16823638,0.17092927)"><path
       d="m 497,482.006 h -16 v -296 c 0,-8.284 -6.716,-15 -15,-15 h -60 c -8.284,0 -15,6.716 -15,15 v 296 h -30 v -196 c 0,-8.284 -6.716,-15 -15,-15 h -60 c -8.284,0 -15,6.716 -15,15 v 196 h -30 v -141 c 0,-8.284 -6.716,-15 -15,-15 h -60 c -8.284,0 -15,6.716 -15,15 v 141 h -30 v -105 c 0,-8.284 -6.716,-15 -15,-15 H 46 c -8.284,0 -15,6.716 -15,15 v 105 H 15 c -8.284,0 -15,6.716 -15,15 0,8.284 6.716,15 15,15 h 482 c 8.284,0 15,-6.716 15,-15 0,-8.284 -6.716,-15 -15,-15 z"
       fill="#dc3545"
       data-original="#000000"
       class=""
       id="path2" /><path
       d="m 15,322.31 c 93.618,0 195.14,-33.622 285.866,-94.673 71.055,-47.815 130.286,-108.898 167.078,-171.445 l 14.568,54.367 c 1.796,6.702 10.467,12.492 18.371,10.606 8.058,-1.922 12.75,-10.369 10.606,-18.371 L 486.926,11.124 C 484.781,3.123 476.56,-1.627 468.555,0.518 l -91.67,24.563 c -8.002,2.144 -12.75,10.369 -10.606,18.371 2.145,8.002 10.366,12.752 18.371,10.606 L 443.705,38.234 C 409.38,97.88 352.652,156.628 284.117,202.747 198.289,260.503 102.715,292.31 15,292.31 c -8.284,0 -15,6.716 -15,15 0,8.284 6.716,15 15,15 z"
       fill="#dc3545"
       data-original="#000000"
       class=""
       id="path4" /></g></svg>
