<?xml version="1.0" encoding="UTF-8" standalone="no"?>
<svg
   xmlns:dc="http://purl.org/dc/elements/1.1/"
   xmlns:cc="http://creativecommons.org/ns#"
   xmlns:rdf="http://www.w3.org/1999/02/22-rdf-syntax-ns#"
   xmlns:svg="http://www.w3.org/2000/svg"
   xmlns="http://www.w3.org/2000/svg"
   xmlns:sodipodi="http://sodipodi.sourceforge.net/DTD/sodipodi-0.dtd"
   xmlns:inkscape="http://www.inkscape.org/namespaces/inkscape"
   version="1.1"
   width="50"
   height="50"
   x="0"
   y="0"
   viewBox="0 0 50 50.000002"
   xml:space="preserve"
   class=""
   id="svg36"
   sodipodi:docname="svg4.svg"
   inkscape:version="1.0.2 (e86c870879, 2021-01-15, custom)"><metadata
     id="metadata42"><rdf:RDF><cc:Work
         rdf:about=""><dc:format>image/svg+xml</dc:format><dc:type
           rdf:resource="http://purl.org/dc/dcmitype/StillImage" /><dc:title></dc:title></cc:Work></rdf:RDF></metadata><defs
     id="defs40" /><sodipodi:namedview
     pagecolor="#ffffff"
     bordercolor="#666666"
     borderopacity="1"
     objecttolerance="10"
     gridtolerance="10"
     guidetolerance="10"
     inkscape:pageopacity="0"
     inkscape:pageshadow="2"
     inkscape:window-width="1366"
     inkscape:window-height="706"
     id="namedview38"
     showgrid="false"
     inkscape:zoom="1.0507812"
     inkscape:cx="256"
     inkscape:cy="65.665428"
     inkscape:window-x="-8"
     inkscape:window-y="-8"
     inkscape:window-maximized="1"
     inkscape:current-layer="svg36" /><g
     id="g34"
     transform="matrix(0.06645721,0,0,0.06645721,10.467976,8.5652215)"><path
       d="m 386.10156,294.55469 c 0,-93.0586 -75.23828,-168.4961 -168.05078,-168.4961 -92.8125,0 -168.05078,75.4375 -168.05078,168.4961 0,93.05859 75.23828,168.49609 168.05078,168.49609 92.8125,0 168.05078,-75.4375 168.05078,-168.49609 z m 0,0"
       fill="#dc3545"
       data-original="#89c8fd"
       class=""
       id="path2" /><path
       d="m 218.05078,126.05859 c -8.625,0 -17.10156,0.65235 -25.375,1.91016 80.76953,12.26562 142.67188,82.17578 142.67188,166.58594 0,84.41015 -61.90235,154.32031 -142.67188,166.58593 8.27344,1.25782 16.75,1.91016 25.375,1.91016 92.8125,0 168.05078,-75.4375 168.05078,-168.49609 0,-93.0586 -75.23828,-168.4961 -168.05078,-168.4961 z m 0,0"
       fill="#dc3545"
       data-original="#60b6ff"
       class=""
       id="path4" /><g
       fill="#baeb6c"
       id="g16"><path
         d="m 196.20703,191.54297 c -25.88672,16.22265 -45.30469,42.17578 -30.74219,71.3789 14.5625,29.19922 46.92188,17.84375 76.85547,13.78907 29.9336,-4.05469 7.28125,88.41406 25.07813,111.125 17.79687,22.71093 67.95312,-22.71094 63.10156,-51.91407 -7.1875,-43.23437 -9.70703,-58.40234 48.53906,-89.22265 l 0.15625,-0.0586 C 359.5625,180.16016 300.13281,130.83203 228.57422,126.39844 l -0.008,0.2539 c 0,0 -6.47266,48.66797 -32.35938,64.89063 z m 0,0"
         fill="#baeb6c"
         data-original="#baeb6c"
         class=""
         id="path6" /><path
         d="m 323.33984,163.23828 c 0.0117,0.008 0.0234,0.0195 0.0352,0.0273 -0.0117,-0.008 -0.0234,-0.0156 -0.0352,-0.0273 z m 0,0"
         fill="#baeb6c"
         data-original="#baeb6c"
         class=""
         id="path8" /><path
         d="m 343.89062,182.89453 c 0,0.004 0.004,0.008 0.008,0.008 -0.004,-0.004 -0.004,-0.004 -0.008,-0.008 z m 0,0"
         fill="#baeb6c"
         data-original="#baeb6c"
         class=""
         id="path10" /><path
         d="m 106.41016,370.80078 c -7.773441,-11.85547 13.7539,-39.74219 18.60547,-60.83203 C 129.87109,288.87891 100.74609,290.5 91.847656,283.19922 82.949219,275.89844 70.8125,244.26562 61.914062,236.96484 l -1.421874,-1.12109 C 53.710938,254.125 50,273.90625 50,294.55469 50,350.25 76.953125,399.625 118.49219,430.30078 l 0.0508,-3.53125 c 0,0 6.47266,-27.57812 -12.13281,-55.96875 z m 0,0"
         fill="#baeb6c"
         data-original="#baeb6c"
         class=""
         id="path12" /><path
         d="m 330.5,335.92187 c -0.0352,-0.21093 -0.0703,-0.41796 -0.10547,-0.6289 -3.21484,12.98828 -7.93359,25.38281 -13.96094,36.98437 9.5586,-11.28125 15.94532,-25.03515 14.06641,-36.35547 z m 0,0"
         fill="#baeb6c"
         data-original="#baeb6c"
         class=""
         id="path14" /></g><path
       d="m 228.57422,126.39844 -0.008,0.2539 c 0,0 -0.53907,4.0625 -1.92969,10.22266 58.92969,22.30469 102.07422,76.85937 108.01172,142.20312 7.42578,-10.15625 21.00781,-20.00781 44.39062,-32.3789 l 0.15625,-0.0586 C 359.5625,180.16016 300.13281,130.83203 228.57422,126.39844 Z m 0,0"
       fill="#96d629"
       data-original="#96d629"
       class=""
       id="path18" /><path
       d="m 217.82422,512 c -11.90235,0 -23.89063,-0.97656 -35.8711,-2.95703 C 124.68359,499.58594 74.523438,468.39453 40.714844,421.21484 6.90625,374.03516 -6.503906,316.51172 2.957031,259.24609 c 0.683594,-4.14843 4.613281,-6.95312 8.75,-6.26953 4.148438,0.6836 6.957031,4.60157 6.269531,8.75 -8.792968,53.25391 3.675782,106.7461 35.117188,150.6211 31.441406,43.875 78.08203,72.8789 131.34375,81.67578 109.94922,18.16406 214.15234,-56.51172 232.3125,-166.44531 8.79297,-53.25391 -3.67578,-106.7461 -35.11719,-150.6211 -31.4375,-43.875 -78.08203,-72.8789 -131.33984,-81.67578 -4.14844,-0.683594 -6.95703,-4.601562 -6.27344,-8.75 0.6875,-4.148438 4.61328,-6.953125 8.75,-6.269531 57.27344,9.457031 107.43359,40.648441 141.23828,87.828121 33.8086,47.17969 47.21875,104.70313 37.76172,161.96875 -9.45703,57.26563 -40.65234,107.42188 -87.83594,141.22657 C 306.61719,498.01953 262.83594,512 217.82422,512 Z m 0,0"
       fill="#09a66d"
       data-original="#09a66d"
       id="path20" /><path
       d="M 171.60547,183.88672 C 90.339844,170.09766 39.925781,67.777344 39.925781,67.777344 c 0,0 81.347659,-79.964844 162.613279,-66.179688 81.26563,13.785156 131.67969,116.105474 131.67969,116.105474 0,0 -81.34766,79.96874 -162.61328,66.18359 z m 0,0"
       fill="#49cb5c"
       data-original="#49cb5c"
       id="path22" /><path
       d="m 202.53906,1.597656 c -15.51953,-2.632812 -31.03515,-1.839844 -45.99219,1.15625 77.8711,17.484375 125.90625,114.949224 125.90625,114.949224 0,0 -53.25,52.33984 -116.625,65.02734 1.91016,0.42969 3.83204,0.82422 5.77735,1.15625 81.26562,13.78515 162.61328,-66.18359 162.61328,-66.18359 0,0 -50.41406,-102.320318 -131.67969,-116.105474 z m 0,0"
       fill="#07b128"
       data-original="#07b128"
       class=""
       id="path24" /><path
       d="M 329.625,109.20703 250.15234,95.800781 175.91797,0.214844 C 169.99609,0.5625 164.12891,1.320312 158.33984,2.40625 l 69.625,89.648438 -59.92578,-10.109376 -51.13281,-66.15625 c -4.79687,2.164063 -9.46094,4.460938 -13.95703,6.84375 l 42.95703,55.578126 -99.089844,-16.71875 c -4.449218,3.886718 -6.890625,6.285156 -6.890625,6.285156 0,0 1.632813,3.308594 4.765625,8.796875 l 98.550784,16.625 -54.656252,42.261721 c 3.519531,3.625 7.210937,7.20703 11.070312,10.68359 l 64.01562,-49.496092 63.44141,10.703122 -86.28125,66.75391 c 5.35547,2.5 10.89063,4.66406 16.59766,6.40625 l 90.11328,-69.71094 79.52344,13.41406 c 4.60937,-4.01953 7.15234,-6.51171 7.15234,-6.51171 0,0 -1.57422,-3.1875 -4.59375,-8.4961 z m 0,0"
       fill="#09a66d"
       data-original="#09a66d"
       id="path26" /><path
       d="m 389.49219,84.566406 c 21.80078,-51.585937 97.33593,-68.953125 97.33593,-68.953125 0,0 40.19141,66.269531 18.39063,117.855469 -21.79688,51.58594 -97.33594,68.95312 -97.33594,68.95312 0,0 -40.1914,-66.26953 -18.39062,-117.855464 z m 0,0"
       fill="#49cb5c"
       data-original="#49cb5c"
       id="path28" /><path
       d="m 486.82812,15.613281 c 0,0 -17.17578,3.953125 -37.51171,13.679688 C 459.75,51.394531 476.28906,96.25 460.55859,133.46875 c -11.40234,26.98437 -37.51172,44.60547 -59.82031,55.27344 4.02735,8.53125 7.14844,13.67968 7.14844,13.67968 0,0 75.53515,-17.36718 97.33594,-68.95312 C 527.01953,81.882812 486.82812,15.613281 486.82812,15.613281 Z m 0,0"
       fill="#07b128"
       data-original="#07b128"
       class=""
       id="path30" /><path
       d="m 511.39453,90.921875 -58.08594,24.367185 38.13672,-91.175779 c -2.73047,-5.390625 -4.61719,-8.5 -4.61719,-8.5 0,0 -3.59375,0.828125 -9.4414,2.65625 L 437.97266,112.49609 413.53125,52.359375 c -4.14063,3.652344 -8.04688,7.621094 -11.58984,11.921875 l 27.69531,68.14453 -26.01563,62.19531 c 2.53907,4.95703 4.26172,7.80078 4.26172,7.80078 0,0 3.90625,-0.89843 10.1875,-2.89062 l 26.86328,-64.21875 66.4375,-27.86719 c 0.44141,-5.51953 0.41797,-11.054685 0.0234,-16.523435 z m 0,0"
       fill="#09a66d"
       data-original="#09a66d"
       id="path32" /></g></svg>
