<?xml version="1.0" encoding="UTF-8" standalone="no"?>
<svg
   xmlns:dc="http://purl.org/dc/elements/1.1/"
   xmlns:cc="http://creativecommons.org/ns#"
   xmlns:rdf="http://www.w3.org/1999/02/22-rdf-syntax-ns#"
   xmlns:svg="http://www.w3.org/2000/svg"
   xmlns="http://www.w3.org/2000/svg"
   xmlns:sodipodi="http://sodipodi.sourceforge.net/DTD/sodipodi-0.dtd"
   xmlns:inkscape="http://www.inkscape.org/namespaces/inkscape"
   version="1.1"
   width="50"
   height="50"
   x="0"
   y="0"
   viewBox="0 0 50 50"
   xml:space="preserve"
   class=""
   id="svg42"
   sodipodi:docname="svg6.svg"
   inkscape:version="1.0.2 (e86c870879, 2021-01-15, custom)"><metadata
     id="metadata48"><rdf:RDF><cc:Work
         rdf:about=""><dc:format>image/svg+xml</dc:format><dc:type
           rdf:resource="http://purl.org/dc/dcmitype/StillImage" /><dc:title></dc:title></cc:Work></rdf:RDF></metadata><defs
     id="defs46" /><sodipodi:namedview
     pagecolor="#ffffff"
     bordercolor="#666666"
     borderopacity="1"
     objecttolerance="10"
     gridtolerance="10"
     guidetolerance="10"
     inkscape:pageopacity="0"
     inkscape:pageshadow="2"
     inkscape:window-width="1366"
     inkscape:window-height="706"
     id="namedview44"
     showgrid="false"
     inkscape:zoom="1.0507812"
     inkscape:cx="256"
     inkscape:cy="179.86617"
     inkscape:window-x="-8"
     inkscape:window-y="-8"
     inkscape:window-maximized="1"
     inkscape:current-layer="svg42" /><g
     id="g40"
     transform="matrix(0.06790396,0,0,0.06790396,8.7896259,8.5650534)">
<path
   d="m 256,512 v 0 C 395.695,459.742 488.276,326.261 488.276,177.113 V 86.716 C 440.384,86.716 401.56,47.892 401.56,0 H 256 110.44 c 0,47.892 -38.824,86.716 -86.716,86.716 v 90.396 C 23.724,326.261 116.305,459.742 256,512 Z"
   fill="#dc3545"
   data-original="#ffdb0c"
   class=""
   id="path2" />
<path
   d="m 256,512 v 0 C 395.695,459.742 488.276,326.261 488.276,177.113 V 86.716 C 440.384,86.716 401.56,47.892 401.56,0 H 256 c 0,0 0,398 0,512 z"
   fill="#dc3545"
   data-original="#fbbf00"
   class=""
   id="path4" />
<polygon
   points="365.36,204.563 223.642,346.281 146.64,269.28 189.066,226.853 223.642,261.429 322.934,162.137 "
   fill="#f1f1f2"
   data-original="#f1f1f2"
   id="polygon6" />
<polygon
   points="365.36,204.563 256,313.923 256,229.071 322.934,162.137 "
   fill="#e6e6e6"
   data-original="#e6e6e6"
   id="polygon8" />
<g
   id="g10">
</g>
<g
   id="g12">
</g>
<g
   id="g14">
</g>
<g
   id="g16">
</g>
<g
   id="g18">
</g>
<g
   id="g20">
</g>
<g
   id="g22">
</g>
<g
   id="g24">
</g>
<g
   id="g26">
</g>
<g
   id="g28">
</g>
<g
   id="g30">
</g>
<g
   id="g32">
</g>
<g
   id="g34">
</g>
<g
   id="g36">
</g>
<g
   id="g38">
</g>
</g></svg>
