<?xml version="1.0" encoding="UTF-8" standalone="no"?>
<svg
   xmlns:dc="http://purl.org/dc/elements/1.1/"
   xmlns:cc="http://creativecommons.org/ns#"
   xmlns:rdf="http://www.w3.org/1999/02/22-rdf-syntax-ns#"
   xmlns:svg="http://www.w3.org/2000/svg"
   xmlns="http://www.w3.org/2000/svg"
   xmlns:sodipodi="http://sodipodi.sourceforge.net/DTD/sodipodi-0.dtd"
   xmlns:inkscape="http://www.inkscape.org/namespaces/inkscape"
   version="1.1"
   width="100"
   height="100"
   x="0"
   y="0"
   viewBox="0 0 12.5 12.5"
   xml:space="preserve"
   class=""
   id="svg44"
   sodipodi:docname="testi.svg"
   inkscape:version="1.0.2 (e86c870879, 2021-01-15, custom)"><metadata
     id="metadata50"><rdf:RDF><cc:Work
         rdf:about=""><dc:format>image/svg+xml</dc:format><dc:type
           rdf:resource="http://purl.org/dc/dcmitype/StillImage" /><dc:title></dc:title></cc:Work></rdf:RDF></metadata><defs
     id="defs48" /><sodipodi:namedview
     pagecolor="#ffffff"
     bordercolor="#666666"
     borderopacity="1"
     objecttolerance="10"
     gridtolerance="10"
     guidetolerance="10"
     inkscape:pageopacity="0"
     inkscape:pageshadow="2"
     inkscape:window-width="1366"
     inkscape:window-height="706"
     id="namedview46"
     showgrid="false"
     inkscape:zoom="1.0507812"
     inkscape:cx="256"
     inkscape:cy="27.598513"
     inkscape:window-x="-8"
     inkscape:window-y="-8"
     inkscape:window-maximized="1"
     inkscape:current-layer="svg44" /><g
     id="g42"
     transform="matrix(0.17483921,0,0,0.17483921,0.88841671,0.88841698)"><path
       d="M 32,12.5 A 1.50008,1.50008 0 0 1 30.5,11 V 2 a 1.5,1.5 0 0 1 3,0 v 9 A 1.50008,1.50008 0 0 1 32,12.5 Z"
       fill="#000000"
       data-original="#000000"
       class=""
       id="path2" /><path
       d="m 24.53767,13.98435 a 1.50007,1.50007 0 0 1 -1.95984,-0.8118 L 19.13368,4.85764 a 1.5,1.5 0 1 1 2.77164,-1.148 l 3.44415,8.31491 a 1.50008,1.50008 0 0 1 -0.8118,1.9598 z"
       fill="#000000"
       data-original="#000000"
       class=""
       id="path4" /><path
       d="m 18.21142,18.21142 a 1.50007,1.50007 0 0 1 -2.12132,0 l -6.364,-6.364 A 1.5,1.5 0 0 1 11.84742,9.7261 l 6.364,6.364 a 1.50007,1.50007 0 0 1 0,2.12132 z"
       fill="#000000"
       data-original="#000000"
       class=""
       id="path6" /><path
       d="m 13.98435,24.53767 a 1.50008,1.50008 0 0 1 -1.95985,0.8118 L 3.70959,21.90532 a 1.5000006,1.5000006 0 1 1 1.14805,-2.77164 l 8.31491,3.44415 a 1.50007,1.50007 0 0 1 0.8118,1.95984 z"
       fill="#000000"
       data-original="#000000"
       class=""
       id="path8" /><path
       d="M 12.5,32 A 1.50008,1.50008 0 0 1 11,33.5 H 2 a 1.5,1.5 0 0 1 0,-3 h 9 a 1.50007,1.50007 0 0 1 1.5,1.5 z"
       fill="#000000"
       data-original="#000000"
       class=""
       id="path10" /><path
       d="m 13.98435,39.46233 a 1.50007,1.50007 0 0 1 -0.8118,1.95984 l -8.31491,3.44415 a 1.5,1.5 0 1 1 -1.148,-2.77164 l 8.31491,-3.44415 a 1.50008,1.50008 0 0 1 1.9598,0.8118 z"
       fill="#000000"
       data-original="#000000"
       class=""
       id="path12" /><path
       d="m 18.21142,45.78858 a 1.50007,1.50007 0 0 1 0,2.12132 l -6.364,6.364 A 1.5,1.5 0 0 1 9.7261,52.15258 l 6.364,-6.364 a 1.50007,1.50007 0 0 1 2.12132,0 z"
       fill="#000000"
       data-original="#000000"
       class=""
       id="path14" /><path
       d="m 24.53767,50.01565 a 1.50008,1.50008 0 0 1 0.8118,1.95985 l -3.44415,8.31491 a 1.5000006,1.5000006 0 1 1 -2.77164,-1.14805 l 3.44415,-8.31491 a 1.50007,1.50007 0 0 1 1.95984,-0.8118 z"
       fill="#000000"
       data-original="#000000"
       class=""
       id="path16" /><path
       d="m 32,51.5 a 1.50008,1.50008 0 0 1 1.5,1.5 v 9 a 1.5,1.5 0 0 1 -3,0 V 53 A 1.50007,1.50007 0 0 1 32,51.5 Z"
       fill="#000000"
       data-original="#000000"
       class=""
       id="path18" /><path
       d="m 39.46233,50.01565 a 1.50007,1.50007 0 0 1 1.95984,0.8118 l 3.44415,8.31491 a 1.5000006,1.5000006 0 1 1 -2.77164,1.14805 L 38.65053,51.9755 a 1.50008,1.50008 0 0 1 0.8118,-1.95985 z"
       fill="#000000"
       data-original="#000000"
       class=""
       id="path20" /><path
       d="m 45.78858,45.78858 a 1.50007,1.50007 0 0 1 2.12132,0 l 6.364,6.364 a 1.5,1.5 0 0 1 -2.12132,2.12132 l -6.364,-6.364 a 1.50007,1.50007 0 0 1 0,-2.12132 z"
       fill="#000000"
       data-original="#000000"
       class=""
       id="path22" /><path
       d="m 50.01565,39.46233 a 1.50008,1.50008 0 0 1 1.95985,-0.8118 l 8.31491,3.44415 a 1.5000006,1.5000006 0 1 1 -1.14805,2.77164 l -8.31491,-3.44415 a 1.50007,1.50007 0 0 1 -0.8118,-1.95984 z"
       fill="#000000"
       data-original="#000000"
       class=""
       id="path24" /><path
       d="M 51.5,32 A 1.50008,1.50008 0 0 1 53,30.5 h 9 a 1.5,1.5 0 0 1 0,3 H 53 A 1.50007,1.50007 0 0 1 51.5,32 Z"
       fill="#000000"
       data-original="#000000"
       class=""
       id="path26" /><path
       d="m 50.01565,24.53767 a 1.50007,1.50007 0 0 1 0.8118,-1.95984 l 8.31491,-3.44415 a 1.5000006,1.5000006 0 1 1 1.14805,2.77164 l -8.31491,3.44415 a 1.50008,1.50008 0 0 1 -1.95985,-0.8118 z"
       fill="#000000"
       data-original="#000000"
       class=""
       id="path28" /><path
       d="m 45.78858,18.21142 a 1.50007,1.50007 0 0 1 0,-2.12132 l 6.364,-6.364 a 1.5,1.5 0 0 1 2.12132,2.12132 l -6.364,6.364 a 1.50007,1.50007 0 0 1 -2.12132,0 z"
       fill="#000000"
       data-original="#000000"
       class=""
       id="path30" /><path
       d="m 39.46233,13.98435 a 1.50008,1.50008 0 0 1 -0.8118,-1.95985 l 3.44415,-8.31491 a 1.5000006,1.5000006 0 1 1 2.77164,1.14805 l -3.44415,8.31491 a 1.50007,1.50007 0 0 1 -1.95984,0.8118 z"
       fill="#000000"
       data-original="#000000"
       class=""
       id="path32" /><g
       fill="#3e3ef4"
       id="g40"><path
         d="m 20.49219,39.95068 a 13.452,13.452 0 0 1 6.41424,-5.4613 7.50019,7.50019 0 1 1 10.15808,0.02643 13.23,13.23 0 0 1 7.6402,7.99859 16.49905,16.49905 0 1 0 -25.42853,-0.02081 13.59271,13.59271 0 0 1 1.21601,-2.54291 z"
         fill="#dc3545"
         data-original="#3e3ef4"
         class=""
         id="path34" /><path
         d="m 40.42578,40.74365 a 10.45939,10.45939 0 0 0 -18.688,4.15387 16.41782,16.41782 0 0 0 20.52515,-6.7e-4 10.40159,10.40159 0 0 0 -1.83715,-4.1532 z"
         fill="#dc3545"
         data-original="#3e3ef4"
         class=""
         id="path36" /><circle
         cx="32"
         cy="29"
         r="4.5"
         fill="#dc3545"
         data-original="#3e3ef4"
         class=""
         id="circle38" /></g></g></svg>
